<svg width="122" height="122" viewBox="0 0 122 122" fill="none" xmlns="http://www.w3.org/2000/svg">
    <g filter="url(#filter0_d_1244_4423)">
        <rect x="2" y="3" width="113" height="113" rx="22.7626" fill="#FF5F2C"/>
    </g>
    <path d="M24.3562 50.4311C24.3562 26.7172 39.6428 15.6007 58.5006 15.6007C77.3583 15.6007 92.6449 26.7172 92.6449 50.4311C92.6449 71.1174 66.663 98.1871 60.0285 103.28C59.115 103.981 57.8871 103.981 56.9736 103.28C50.3381 98.1862 24.3562 71.1165 24.3562 50.4311Z" fill="white"/>
    <path d="M67.2935 66.4832L67.2906 66.4746C67.2077 66.2292 67.2687 65.9582 67.4459 65.7689C76.8657 55.6825 76.0475 42.7465 75.1282 37.1725C74.851 35.4908 73.4679 34.2067 71.7676 34.0526C66.1333 33.5419 53.1537 33.6674 43.7634 43.7804C43.5872 43.9706 43.3214 44.0515 43.07 43.9858L43.0614 43.9839C39.6865 43.1184 33.3101 42.639 26.7032 48.2471C25.6258 49.1622 25.8106 50.8734 27.0689 51.5173L35.3057 55.7329C35.6772 55.9232 35.9696 56.4207 35.961 56.8373C35.8477 62.3846 33.935 66.643 29.8866 69.4994C32.9043 75.3644 36.826 81.0924 40.7943 86.148C42.8433 78.8039 47.6737 75.1675 54.9712 74.4874C55.3875 74.4484 55.9047 74.7033 56.1219 75.06L60.9304 82.9567C61.6648 84.1628 63.388 84.2228 64.2234 83.0832C69.3453 76.0968 68.4032 69.781 67.2935 66.4823V66.4832ZM36.403 56.316L36.3545 56.2704L36.4097 56.2989C36.4078 56.3046 36.4059 56.3103 36.404 56.316H36.403ZM55.4589 74.009C55.4646 74.0061 55.4703 74.0042 55.4761 74.0014L55.5084 74.0537L55.4599 74.008L55.4589 74.009Z" fill="#FF5F2C"/>
    <path d="M58.5005 59.9515C63.1169 59.9515 66.8592 56.2146 66.8592 51.6049C66.8592 46.9952 63.1169 43.2583 58.5005 43.2583C53.8842 43.2583 50.1418 46.9952 50.1418 51.6049C50.1418 56.2146 53.8842 59.9515 58.5005 59.9515Z" fill="white"/>
    <defs>
        <filter id="filter0_d_1244_4423" x="0.821223" y="0.601799" width="121.048" height="121.048" filterUnits="userSpaceOnUse" color-interpolation-filters="sRGB">
            <feFlood flood-opacity="0" result="BackgroundImageFix"/>
            <feColorMatrix in="SourceAlpha" type="matrix" values="0 0 0 0 0 0 0 0 0 0 0 0 0 0 0 0 0 0 127 0" result="hardAlpha"/>
            <feMorphology radius="0.81295" operator="dilate" in="SourceAlpha" result="effect1_dropShadow_1244_4423"/>
            <feOffset dx="2.84532" dy="1.6259"/>
            <feGaussianBlur stdDeviation="1.60558"/>
            <feComposite in2="hardAlpha" operator="out"/>
            <feColorMatrix type="matrix" values="0 0 0 0 0 0 0 0 0 0 0 0 0 0 0 0 0 0 0.13 0"/>
            <feBlend mode="normal" in2="BackgroundImageFix" result="effect1_dropShadow_1244_4423"/>
            <feBlend mode="normal" in="SourceGraphic" in2="effect1_dropShadow_1244_4423" result="shape"/>
        </filter>
    </defs>
</svg>
